#!OML:ASF I:\salsa\salsa 7_09\Patient 1\Session 1\dancermale.ASF
:FULLY-SPECIFIED
:DEGREES
1201
root -4.04961 17.2317 4.42091 -694.677 93.8364 -700.57
lowerback -2.84854 1.75795 0.668037
upperback -1.41042 2.3619 2.41278
thorax 0.0745416 1.20524 2.1655
lowerneck -6.33784 -4.93575 -0.105008
upperneck 22.1899 -5.62028 -3.14865
head 7.77731 -2.75323 -1.46228
rclavicle 1.37658e-014 7.95139e-015
rhumerus -26.372 3.56861 -93.3643
rradius 88.5919
rwrist -30.3632
rhand 150.516 161.585
rfingers 7.12502
rthumb -2.81874 -48.3759
lclavicle 1.37658e-014 7.95139e-015
lhumerus -32.0556 -9.56147 73.6078
lradius 105.113
lwrist 58.4578
lhand -16.3554 56.7104
lfingers 7.12502
lthumb 9.85732 446.46
rfemur -23.857 -1.14029 20.3131
rtibia 17.7318
rfoot -2.43215 -13.1935
rtoes 11.4512
lfemur -5.15472 -5.94866 -20.6558
ltibia 31.5118
lfoot -22.9477 10.9706
ltoes -10.1954
1202
root -4.24522 17.2461 4.3683 -700.852 93.7126 -706.901
lowerback -2.65892 1.66323 0.195949
upperback -1.40455 2.24851 2.44468
thorax -0.0411592 1.1508 2.45335
lowerneck -6.2564 -4.90514 0.0497063
upperneck 22.271 -5.52511 -3.45606
head 7.77559 -2.71977 -1.57925
rclavicle -7.47927e-015 1.98785e-014
rhumerus -27.7355 3.93265 -93.3494
rradius 88.7499
rwrist -29.3074
rhand 149.462 162.049
rfingers 7.12502
rthumb -3.83717 -47.8959
lclavicle -7.47927e-015 1.98785e-014
lhumerus -31.7679 -9.16348 73.6203
lradius 105.174
lwrist 58.3011
lhand -16.6464 56.8107
lfingers 7.12502
lthumb 9.57654 446.573
rfemur -24.7767 -0.942859 19.1988
rtibia 17.9728
rfoot -1.78154 -12.8802
rtoes 8.62698
lfemur -4.85939 -5.76387 -21.3927
ltibia 29.3297
lfoot -23.4046 11.5997
ltoes -9.10776
1203
root -4.44528 17.2549 4.31217 -704.613 93.6408 -710.921
lowerback -2.54263 1.58199 0.0549044
upperback -1.40302 2.14397 2.43891
thorax -0.10525 1.09912 2.5203
lowerneck -6.31156 -4.87726 0.170546
upperneck 22.4387 -5.42116 -3.7872
head 7.82845 -2.68756 -1.70409
rclavicle -5.31749e-015 -3.18055e-015
rhumerus -29.3009 3.85251 -93.4155
rradius 89.0213
rwrist -28.2413
rhand 149.068 162.537
rfingers 7.12502
rthumb -4.21707 -47.4006
lclavicle -5.31749e-015 -3.18055e-015
lhumerus -31.4128 -8.71582 73.7325
lradius 104.999
lwrist 58.2571
lhand -16.6798 56.5595
lfingers 7.12502
lthumb 9.54431 446.323
rfemur -25.9567 -0.76358 18.2358
rtibia 18.5544
rfoot -1.68447 -12.3219
rtoes 3.39554
lfemur -4.87991 -5.37454 -21.7846
ltibia 27.4594
lfoot -23.8303 11.5296
ltoes -8.48296
1204
root -4.64904 17.2567 4.25252 -707.318 93.7226 -713.977
lowerback -2.46384 1.48772 0.157686
upperback -1.44813 2.01784 2.37911
thorax -0.184287 1.03554 2.39513
lowerneck -6.35721 -4.84056 0.339159
upperneck 22.6532 -5.31628 -4.07744
head 7.89535 -2.64611 -1.82443
rclavicle -8.77137e-015 -7.95139e-015
rhumerus -31.0427 3.3084 -93.4949
rradius 89.1846
rwrist -26.7476
rhand 148.957 163.258
rfingers 7.12502
rthumb -4.32506 -46.6781
lclavicle -8.77137e-015 -7.95139e-015
lhumerus -31.1364 -8.3296 73.9605
lradius 104.698
lwrist 58.4656
lhand -16.6254 56.3947
lfingers 7.12502
lthumb 9.5968 446.156
rfemur -27.4752 -0.912934 17.3871
rtibia 19.836
rfoot -2.27305 -11.3932
rtoes -2.11418
lfemur -5.20477 -5.0525 -22.0345
ltibia 25.9032
lfoot -24.1333 11.1783
ltoes -8.32987
1205
root -4.84859 17.2546 4.19568 -710.148 93.6298 -716.949
lowerback -2.17431 1.48995 0.275461
upperback -1.43727 2.02084 2.29847
thorax -0.328173 1.03544 2.2376
lowerneck -6.46896 -4.77057 0.0511718
upperneck 23.047 -5.20942 -3.8
head 8.06888 -2.58604 -1.68895
rclavicle -3.57812e-014 -1.43125e-014
rhumerus -32.8365 2.44495 -93.4245
rradius 89.1731
rwrist -25.2137
rhand 148.817 164.493
rfingers 7.12502
rthumb -4.45961 -45.4405
lclavicle -3.57812e-014 -1.43125e-014
lhumerus -30.9773 -8.00466 74.4715
lradius 104.271
lwrist 58.917
lhand -16.6313 56.1589
lfingers 7.12502
lthumb 9.59108 445.921
rfemur -28.9317 -0.951097 16.6007
rtibia 21.7092
rfoot -2.75128 -10.0784
rtoes -6.37308
lfemur -5.39266 -4.49855 -22.3727
ltibia 24.5584
lfoot -24.0552 11.0084
ltoes -8.28499
1206
root -5.04066 17.2464 4.14361 -713.247 93.4131 -720.192
lowerback -1.97941 1.56101 0.398851
upperback -1.39937 2.11312 2.17961
thorax -0.392732 1.07895 2.04246
lowerneck -6.3864 -4.74032 0.132677
upperneck 23.1036 -5.14931 -3.8964
head 8.06834 -2.55632 -1.72772
rclavicle 2.66371e-014 2.8625e-014
rhumerus -34.5565 1.29173 -93.2299
rradius 88.8959
rwrist -23.9324
rhand 148.462 166.078
rfingers 7.12502
rthumb -4.8031 -43.8472
lclavicle 2.66371e-014 2.8625e-014
lhumerus -30.8781 -7.65381 75.3384
lradius 103.665
lwrist 59.3359
lhand -16.4129 55.8165
lfingers 7.12502
lthumb 9.80179 445.568
rfemur -30.5433 -1.13957 16.1111
rtibia 24.8768
rfoot -4.30195 -8.97737
rtoes -2.17039
lfemur -5.68329 -3.82926 -22.7761
ltibia 23.4413
lfoot -23.6013 10.9635
ltoes -7.81875
1207
root -5.22712 17.2365 4.09241 -717.07 93.3878 -724.246
lowerback -1.97726 1.6042 0.594407
upperback -1.35772 2.16331 1.98804
thorax -0.338102 1.10007 1.7379
lowerneck -6.25982 -4.78198 0.240625
upperneck 23.1317 -5.20366 -3.95093
head 8.04794 -2.57474 -1.76469
rclavicle 3.57812e-015 -3.02153e-014
rhumerus -36.0374 -0.245997 -92.8972
rradius 88.1623
rwrist -22.9548
rhand 148.132 167.734
rfingers 7.12502
rthumb -5.12174 -42.1841
lclavicle 3.57812e-015 -3.02153e-014
lhumerus -30.9895 -7.40981 76.4727
lradius 103.114
lwrist 59.7205
lhand -16.327 55.6181
lfingers 7.12502
lthumb 9.8847 445.366
rfemur -32.3015 -1.77012 15.914
rtibia 29.2867
rfoot -6.91065 -9.12625
rtoes -0.695879
lfemur -6.42597 -3.61209 -23.2777
ltibia 23.044
lfoot -23.0974 10.9553
ltoes -6.61473
1208
root -5.40597 17.2329 4.04764 -723.694 93.271 -730.96
lowerback -1.83519 1.69321 0.641686
upperback -1.28339 2.27668 1.72808
thorax -0.331779 1.15278 1.4435
lowerneck -6.11248 -4.76767 0.121505
upperneck 23.199 -5.19511 -3.7661
head 8.05383 -2.55865 -1.68028
rclavicle 1.18774e-014 2.38542e-014
rhumerus -37.2976 -2.25881 -92.3092
rradius 87.0217
rwrist -22.3637
rhand 148.326 169.846
rfingers 7.12502
rthumb -4.93439 -40.0761
lclavicle 1.18774e-014 2.38542e-014
lhumerus -31.3538 -7.29639 77.6717
lradius 102.734
lwrist 60.2078
lhand -16.7227 55.9907
lfingers 7.12502
lthumb 9.50289 445.756
rfemur -33.8488 -2.19434 15.6766
rtibia 34.1866
rfoot -7.77479 -10.4582
rtoes -2.52944
lfemur -7.24212 -3.59774 -23.9499
ltibia 23.1208
lfoot -22.6192 10.9884
ltoes -5.56599
1209
root -5.57876 17.2363 4.00652 -732.474 93.2107 -739.644
lowerback -1.48524 1.73439 0.623717
upperback -1.19052 2.32876 1.40819
thorax -0.420763 1.17459 1.11673
lowerneck -6.07228 -4.74709 0.236263
upperneck 23.4994 -5.17184 -3.70901
head 8.14592 -2.52439 -1.68357
rclavicle -5.2181e-015 -1.11319e-014
rhumerus -38.5074 -4.569 -91.5366
rradius 85.7801
rwrist -22.323
rhand 148.744 172.634
rfingers 7.12502
rthumb -4.53048 -37.2979
lclavicle -5.2181e-015 -1.11319e-014
lhumerus -31.8013 -6.8637 78.8288
lradius 101.927
lwrist 60.0653
lhand -15.938 56.2016
lfingers 7.12502
lthumb 10.26 445.931
rfemur -35.0601 -2.69515 15.4995
rtibia 39.6201
rfoot -8.36578 -11.9588
rtoes -0.399753
lfemur -8.24207 -3.37432 -24.6415
ltibia 23.9344
lfoot -22.5401 10.811
ltoes -5.50052
1210
root -5.73539 17.2399 3.97592 -741.905 93.0726 -748.929
lowerback -1.30108 1.76985 0.500975
upperback -1.00842 2.37064 1.13377
thorax -0.331212 1.19243 0.90245
lowerneck -6.19935 -4.68882 0.372939
upperneck 23.8755 -5.07986 -3.74117
head 8.29275 -2.46524 -1.72094
rclavicle 6.60959e-015 1.98785e-014
rhumerus -39.5541 -6.948 -90.5691
rradius 84.6676
rwrist -22.8141
rhand 149.153 175.276
rfingers 7.12502
rthumb -4.13578 -34.6641
lclavicle 6.60959e-015 1.98785e-014
lhumerus -32.3649 -6.38033 80.1446
lradius 100.991
lwrist 60.7605
lhand -16.5474 56.242
lfingers 7.12502
lthumb 9.67207 446
rfemur -35.967 -3.05973 15.5001
rtibia 45.2215
rfoot -8.6701 -12.7365
rtoes 5.43777
lfemur -9.13119 -2.91217 -25.2075
ltibia 24.8014
lfoot -22.6757 10.6158
ltoes -6.0078
1211
root -5.8864 17.2432 3.94738 -748.094 92.9235 -755.171
lowerback -1.34223 1.80828 0.593688
upperback -0.868961 2.41539 0.931286
thorax -0.153348 1.21237 0.648646
lowerneck -6.37006 -4.60594 0.336729
upperneck 24.1671 -4.96343 -3.6495
head 8.42999 -2.40047 -1.68576
rclavicle -3.34455e-014 -1.51076e-014
rhumerus -40.4116 -9.41917 -89.32
rradius 83.63
rwrist -23.2976
rhand 149.47 177.248
rfingers 7.12502
rthumb -3.82976 -32.6977
lclavicle -3.34455e-014 -1.51076e-014
lhumerus -33.1561 -5.87388 81.5701
lradius 99.8372
lwrist 61.0866
lhand -16.5547 56.3146
lfingers 7.12502
lthumb 9.66504 446.073
rfemur -36.8678 -3.38973 15.7749
rtibia 50.7876
rfoot -8.93594 -13.1522
rtoes 9.41276
lfemur -10.2585 -2.24801 -25.4818
ltibia 25.7718
lfoot -23.0192 10.4399
ltoes -6.54674
1212
root -6.03542 17.2446 3.92128 -749.037 92.7269 -756.409
lowerback -1.50915 1.81436 0.955114
upperback -0.890794 2.4173 0.814106
thorax -0.0623552 1.2118 0.332775
lowerneck -6.36655 -4.50558 0.316366
upperneck 24.2878 -4.81747 -3.61852
head 8.47543 -2.32746 -1.66178
rclavicle 2.13197e-014 -1.27222e-014
rhumerus -41.4223 -12.1572 -87.5622
rradius 82.9495
rwrist -21.425
rhand 151.221 177.311
rfingers 7.12502
rthumb -2.1379 -32.658
lclavicle 2.13197e-014 -1.27222e-014
lhumerus -34.2987 -5.20787 83.1726
lradius 98.5999
lwrist 61.0996
lhand -15.9084 56.0565
lfingers 7.12502
lthumb 10.2885 445.785
rfemur -37.875 -3.7685 16.4471
rtibia 56.2256
rfoot -9.08298 -13.1942
rtoes 9.85809
lfemur -11.6185 -1.23464 -25.3773
ltibia 26.6723
lfoot -23.2044 10.0756
ltoes -7.47581
